<svg id="Lager_1" data-name="Lager 1" xmlns="http://www.w3.org/2000/svg" viewBox="0 0 567 549.92"><defs><style>.cls-1{fill:#b56232;}.cls-2{fill:#45b29d;}.cls-3{fill:#efc94c;}.cls-4{fill:#e27a3f;}</style></defs><title>icon-flat3d-arrow</title><path class="cls-1" d="M556.76,277.11,386.46,49.83A9,9,0,0,0,373.86,48L311.44,94.8a9,9,0,0,0-1.81,12.6l170.3,227.27Z"/><path class="cls-1" d="M406.76,277.11,236.46,49.83A9,9,0,0,0,223.86,48L161.44,94.8a9,9,0,0,0-1.81,12.6l170.3,227.27Z"/><path class="cls-1" d="M255.76,277.11,85.46,49.83A9,9,0,0,0,72.86,48L10.44,94.8a9,9,0,0,0-1.81,12.6l170.3,227.27Z"/><path class="cls-1" d="M556.76,276.81,386.46,504.08a9,9,0,0,1-12.6,1.81l-62.42-46.77a9,9,0,0,1-1.81-12.6l170.3-227.27Z"/><path class="cls-1" d="M406.76,276.81,236.46,504.08a9,9,0,0,1-12.6,1.81l-62.42-46.77a9,9,0,0,1-1.81-12.6l170.3-227.27Z"/><path class="cls-1" d="M255.76,276.81,85.46,504.08a9,9,0,0,1-12.6,1.81L10.44,459.11a9,9,0,0,1-1.81-12.6l170.3-227.27Z"/><path class="cls-2" d="M558.76,275.11,388.46,47.83A9,9,0,0,0,375.86,46L313.44,92.8a9,9,0,0,0-1.81,12.6l170.3,227.27Z"/><path class="cls-3" d="M408.76,275.11,238.46,47.83A9,9,0,0,0,225.86,46L163.44,92.8a9,9,0,0,0-1.81,12.6l170.3,227.27Z"/><path class="cls-4" d="M257.76,275.11,87.46,47.83A9,9,0,0,0,74.86,46L12.44,92.8a9,9,0,0,0-1.81,12.6l170.3,227.27Z"/><path class="cls-2" d="M558.76,274.81,388.46,502.08a9,9,0,0,1-12.6,1.81l-62.42-46.77a9,9,0,0,1-1.81-12.6l170.3-227.27Z"/><path class="cls-3" d="M408.76,274.81,238.46,502.08a9,9,0,0,1-12.6,1.81l-62.42-46.77a9,9,0,0,1-1.81-12.6l170.3-227.27Z"/><path class="cls-4" d="M257.76,274.81,87.46,502.08a9,9,0,0,1-12.6,1.81L12.44,457.11a9,9,0,0,1-1.81-12.6l170.3-227.27Z"/></svg>